<svg xmlns="http://www.w3.org/2000/svg" viewBox="0 0 920 340" width="920" height="340" role="img" aria-label="Illustrated title card for NeuroOcular AI">
<title>NeuroOcular AI project cover</title>
<defs><linearGradient id="bg" x1="0" y1="0" x2="1" y2="1"><stop offset="0" stop-color="#0B182B"/><stop offset="1" stop-color="#102F42"/></linearGradient><pattern id="grid" width="36" height="36" patternUnits="userSpaceOnUse"><path d="M36 0H0V36" stroke="#28455C" stroke-opacity=".24" stroke-width="1" fill="none"/></pattern></defs>
<rect width="920" height="340" fill="url(#bg)"/><rect width="920" height="340" fill="url(#grid)"/>
<path d="M38 43H505" stroke="#CBA8FF" stroke-opacity=".35"/><rect x="38" y="30" width="7" height="26" fill="#CBA8FF"/>
<text x="61" y="48" font-family="Arial, Helvetica, sans-serif" font-size="14" letter-spacing="2.2" fill="#CBA8FF">SELECTED WORK / 03</text>
<text x="40" y="153" font-family="Arial, Helvetica, sans-serif" font-size="37" font-weight="700" fill="#F1F8FF">NeuroOcular AI</text>
<text x="42" y="190" font-family="Arial, Helvetica, sans-serif" font-size="13.5" font-weight="700" letter-spacing="1.4" fill="#CBA8FF">COMPUTER VISION / RESEARCH</text>
<text x="42" y="236" font-family="Arial, Helvetica, sans-serif" font-size="16" fill="#AFC5D8">Experimental retinal-video analysis</text>
<rect x="40" y="271" width="116" height="27" rx="13" fill="#1B3950" stroke="#CBA8FF" stroke-opacity=".55"/>
<text x="98" y="290" text-anchor="middle" font-family="Arial, Helvetica, sans-serif" font-size="11" font-weight="700" letter-spacing="1" fill="#CBA8FF">VIEW PROJECT</text>
<g><path d="M595 179 Q729 44 862 179 Q729 311 595 179Z" fill="none" stroke="#CBA8FF" stroke-width="5"/><circle cx="729" cy="179" r="62" fill="#122B44" stroke="#CBA8FF" stroke-width="3"/><circle cx="729" cy="179" r="25" fill="#CBA8FF" opacity=".8"/><path d="M610 255 H854 M650 92 H805" stroke="#CBA8FF" stroke-width="2" opacity=".35" stroke-dasharray="7 8"/></g>
</svg>